<svg xmlns="http://www.w3.org/2000/svg" viewBox="0 0 309.15 184.75"><defs><style>.cls-1,.cls-3{fill:#fff;}.cls-2{fill:none;stroke:#fff;stroke-miterlimit:10;stroke-width:2px;}.cls-3{font-size:28px;font-family:Spinnaker-Regular, Spinnaker;}</style></defs><title>Asset 5</title><g id="Layer_2" data-name="Layer 2"><g id="Layer_1-2" data-name="Layer 1"><circle class="cls-1" cx="157.17" cy="83.91" r="3.91"/><line class="cls-2" x1="157.17" y1="45.82" x2="157.17" y2="83.91"/><rect class="cls-2" x="156.2" y="45.82" width="1.94" height="38.09"/><line class="cls-2" x1="157.28" y1="45.82" x2="195.37" y2="45.82"/><rect class="cls-2" x="157.28" y="44.85" width="38.09" height="1.94"/><rect class="cls-1" x="115.58" y="58.69" width="26.47" height="24.1" transform="translate(-12.3 111.81) rotate(-45)"/><rect class="cls-1" x="168.44" y="5.83" width="26.47" height="24.1" transform="translate(40.57 133.7) rotate(-45)"/><line class="cls-2" x1="172.32" y1="27.24" x2="138.17" y2="61.39"/><rect class="cls-2" x="131.1" y="43.34" width="48.29" height="1.94" transform="translate(14.13 122.74) rotate(-45)"/><line class="cls-2" x1="155.25" y1="44.12" x2="116.55" y2="5.42"/><rect class="cls-2" x="134.93" y="-2.59" width="1.94" height="54.72" transform="translate(22.29 103.35) rotate(-45)"/><circle class="cls-1" cx="155.25" cy="44.31" r="17.97"/><circle class="cls-1" cx="116.83" cy="5.57" r="5.11"/><circle class="cls-1" cx="195.97" cy="45.82" r="3.91"/><path class="cls-1" d="M36.49,123.68l-.07.18c-.31.83-.62,1.71-.91,2.65l-1.67,5.34h-.21L31,124.21l-.09-.28-6.26-16.55H23.34l-6.07,16.9-.52,1.46c-.16.47-.31.93-.46,1.38l-.8,2.48c-.23.77-.45,1.52-.65,2.25h-.21L14,130.19c-.2-.63-.63-1.82-1.27-3.57,0-.07-.08-.21-.15-.39q-1-2.48-7.58-18.85H0L8.09,126.8,14,141h1.33L21,125.26l1.7-4.75c.2-.63.39-1.23.56-1.81l.61-2H24l1.27,3.87c.2.64.41,1.21.61,1.71l.91,2.4L33,141h1.34l6.91-17.8,6.17-15.86h-5Z"/><path class="cls-1" d="M83.41,114.93a16.79,16.79,0,0,0-6.47-5.86,19.28,19.28,0,0,0-9-2.16,19.61,19.61,0,0,0-9.3,2.25,17.42,17.42,0,0,0-3.71,2.63,16.51,16.51,0,0,0-4.7,7.7,18.43,18.43,0,0,0-.53,3c-.07.75-.11,1.52-.11,2.36A14.58,14.58,0,0,0,51,131.08a16,16,0,0,0,3.87,5.28,17.68,17.68,0,0,0,5.7,3.45A18,18,0,0,0,67,141a22.94,22.94,0,0,0,5.48-.59,18,18,0,0,0,8.09-4.29,16.39,16.39,0,0,0,5.34-12.54,16.64,16.64,0,0,0-.34-3.41A15.67,15.67,0,0,0,83.41,114.93Zm-6,18.56a13.19,13.19,0,0,1-9.42,3.66,13.67,13.67,0,0,1-12.68-8.21,12.94,12.94,0,0,1-1.08-5.27,12.33,12.33,0,0,1,.09-1.5,11.77,11.77,0,0,1,1-3.66,12.41,12.41,0,0,1,2.86-4.05,13.36,13.36,0,0,1,4.24-2.68,15.27,15.27,0,0,1,5.71-1,12.64,12.64,0,0,1,6.42,1.83,13.44,13.44,0,0,1,6.26,7.83,13.47,13.47,0,0,1,.56,3.87A12.11,12.11,0,0,1,77.36,133.49Z"/><path class="cls-1" d="M111.21,129l5.69,11.56h5l-6.3-12.77a10.06,10.06,0,0,0,6.72-8.94c0-.41.07-.82.07-1.26q0-5.76-4.43-8.2-3.63-2-11-2H93.39v33.19h4.34V111.32h8.6a40,40,0,0,1,4.29.23q7.22.75,7.22,6.33a9.73,9.73,0,0,1-.06,1.1,6.16,6.16,0,0,1-3.06,5,10,10,0,0,1-3,1l-.44.08Z"/><path class="cls-1" d="M155.6,111.65q-4.65-4.28-12.26-4.27H129.72v33.19h13q7.95,0,12.8-4.64t4.92-12.49a18.49,18.49,0,0,0-.66-5.06A14.12,14.12,0,0,0,155.6,111.65Zm-3.12,21.47q-3.37,3.51-9.21,3.51h-9.21V111.32h8.6a13.44,13.44,0,0,1,9.47,3.3,10.86,10.86,0,0,1,2.67,3.78,13.35,13.35,0,0,1,1,5.32Q155.81,129.65,152.48,133.12Z"/><path class="cls-1" d="M223.41,133.3l3.14,7.27h4.74l-9.07-20.95-5.3-12.24h-2.46L209,119.11l-10,21.46h4.45l3.4-7.27,1.85-3.93,3.49-7.46c.42-.9.81-1.79,1.17-2.66h0l1.2-3a17.09,17.09,0,0,0,.84-2.67h.28a27.42,27.42,0,0,0,1.06,3.52l.84,2.38.1.27c.35.93.72,1.84,1.1,2.72l3,7Z"/><polygon class="cls-1" points="270.55 107.41 269.16 107.41 256.21 121.62 254.54 123.46 252.62 121.36 239.89 107.41 238.6 107.41 237.59 120.39 236.02 140.57 240.22 140.57 241.73 120.64 242.09 115.82 246.66 120.95 254.12 129.34 254.59 129.34 261.21 122.01 266.98 115.61 267.58 122.55 269.12 140.57 273.36 140.57 271.86 122.93 270.55 107.41"/><path class="cls-1" d="M304.84,110.38q-4-3-10.64-3H281.05v33.19h4.34V133.3h8.15a16.9,16.9,0,0,0,11.07-3.54,12.19,12.19,0,0,0,2.54-2.85,12.89,12.89,0,0,0,2-7.22Q309.15,113.62,304.84,110.38ZM301.68,127a11.19,11.19,0,0,1-7.55,2.39h-8.74V111.32h8.13a13.36,13.36,0,0,1,7.81,2,7.58,7.58,0,0,1,3.23,6.61,9.06,9.06,0,0,1-2.17,6.31A9.39,9.39,0,0,1,301.68,127Z"/><path class="cls-1" d="M192.75,135a18.11,18.11,0,0,1-8.28,2.11,13.39,13.39,0,0,1-9.72-3.92,12.9,12.9,0,0,1-4-9.61,12.6,12.6,0,0,1,1.08-5.22,12.21,12.21,0,0,1,2.84-3.94,13.2,13.2,0,0,1,9.42-3.66,14.5,14.5,0,0,1,10,3.47l2.18-3.47a18.49,18.49,0,0,0-11.77-3.89,19.61,19.61,0,0,0-9.3,2.25,17.42,17.42,0,0,0-3.71,2.63,16.75,16.75,0,0,0-2.85,3.48,15.62,15.62,0,0,0-1.49,3.11c-.13.36-.25.73-.35,1.11a20,20,0,0,0-.65,5.4,14.58,14.58,0,0,0,1.42,6.19,16,16,0,0,0,3.87,5.28,17.68,17.68,0,0,0,5.7,3.45,19.53,19.53,0,0,0,6.94,1.23,23.67,23.67,0,0,0,3.61-.28,17.54,17.54,0,0,0,8.88-3.82l-1.68-3.24A11.58,11.58,0,0,1,192.75,135Z"/><text class="cls-3" transform="translate(64.18 168.59)">ORLANDO18</text></g></g></svg>